<svg width="38" height="38" viewBox="0 0 38 38" fill="none" xmlns="http://www.w3.org/2000/svg">
<rect x="0.976562" y="0.000183105" width="37.024" height="37.024" rx="10.68" fill="#F6F6F6"/>
<path d="M15.8401 15.2442V24.2722H13.4288V15.2442H15.8401ZM13.2786 12.8913C13.2786 12.5408 13.401 12.2516 13.6457 12.0235C13.8905 11.7955 14.2187 11.6814 14.6303 11.6814C15.0364 11.6814 15.3618 11.7955 15.6065 12.0235C15.8568 12.2516 15.982 12.5408 15.982 12.8913C15.982 13.2417 15.8568 13.531 15.6065 13.759C15.3618 13.9871 15.0364 14.1011 14.6303 14.1011C14.2187 14.1011 13.8905 13.9871 13.6457 13.759C13.401 13.531 13.2786 13.2417 13.2786 12.8913ZM20.5207 17.1716V24.2722H18.1177V15.2442H20.3705L20.5207 17.1716ZM20.1702 19.4411H19.5194C19.5194 18.7736 19.6056 18.1729 19.7781 17.6389C19.9505 17.0993 20.1925 16.6404 20.504 16.2622C20.8155 15.8783 21.1854 15.5863 21.6137 15.3861C22.0476 15.1802 22.5315 15.0773 23.0655 15.0773C23.4882 15.0773 23.8748 15.1385 24.2253 15.2609C24.5757 15.3833 24.8761 15.578 25.1264 15.845C25.3823 16.112 25.577 16.4652 25.7105 16.9046C25.8495 17.3441 25.9191 17.8808 25.9191 18.515V24.2722H23.4994V18.5066C23.4994 18.1061 23.4437 17.7946 23.3325 17.5721C23.2212 17.3496 23.0572 17.1939 22.8402 17.1049C22.6288 17.0103 22.3674 16.963 22.0559 16.963C21.7333 16.963 21.4524 17.027 21.2132 17.1549C20.9796 17.2829 20.7849 17.4609 20.6291 17.6889C20.4789 17.9114 20.3649 18.1729 20.287 18.4732C20.2092 18.7736 20.1702 19.0962 20.1702 19.4411Z" fill="#2A2F2F"/>
</svg>
