<svg width="38" height="38" viewBox="0 0 38 38" fill="none" xmlns="http://www.w3.org/2000/svg">
<rect x="0.984375" y="0.000183105" width="37.024" height="37.024" rx="10.68" fill="#F6F6F6"/>
<path d="M28.3472 14.9951C28.3585 15.1532 28.3585 15.3113 28.3585 15.4694C28.3585 20.2921 24.6879 25.849 17.979 25.849C15.9121 25.849 13.9921 25.2504 12.377 24.2113C12.6706 24.2452 12.9529 24.2565 13.2579 24.2565C14.9633 24.2565 16.5333 23.6805 17.787 22.6979C16.1832 22.664 14.8391 21.6136 14.376 20.1679C14.602 20.2018 14.8278 20.2244 15.065 20.2244C15.3926 20.2244 15.7201 20.1792 16.025 20.1001C14.3535 19.7613 13.0998 18.293 13.0998 16.5198V16.4746C13.5854 16.7457 14.1502 16.9151 14.7487 16.9377C13.7661 16.2826 13.1224 15.1645 13.1224 13.8995C13.1224 13.2218 13.303 12.6006 13.6193 12.0585C15.4151 14.2722 18.1145 15.7179 21.1414 15.876C21.0849 15.6049 21.051 15.3226 21.051 15.0402C21.051 13.0298 22.6774 11.3922 24.6991 11.3922C25.7495 11.3922 26.6982 11.8326 27.3646 12.5442C28.1891 12.3861 28.9797 12.0811 29.6799 11.6632C29.4088 12.5103 28.8328 13.2219 28.0761 13.6736C28.8103 13.5946 29.5218 13.3912 30.1769 13.1089C29.68 13.8317 29.0588 14.4755 28.3472 14.9951Z" fill="#2A2F2F"/>
</svg>
